[Header]
FileType HTR
DataType HTRS
FileVersion 1
NumSegments 64
NumFrames 4
DataFrameRate 24
EulerRotationOrder ZYX
CalibrationUnits mm
RotationUnits Degrees
GlobalAxisofGravity Y
BoneLengthAxis Y
ScaleFactor 1.0
[SegmentNames&Hierarchy]
Hips	GLOBAL
Spine	Hips
Spine1	Spine
Spine2	Spine1
Neck	Spine2
Head	Neck
LeftEye	Head
RightEye	Head
LeftShoulder	Spine2
LeftArm	LeftShoulder
LeftForeArm	LeftArm
LeftHand	LeftForeArm
LeftHandThumb1	LeftHand
LeftHandThumb2	LeftHandThumb1
LeftHandThumb3	LeftHandThumb2
LeftHandThumb4	LeftHandThumb3
LeftHandIndex1	LeftHand
LeftHandIndex2	LeftHandIndex1
LeftHandIndex3	LeftHandIndex2
LeftHandIndex4	LeftHandIndex3
LeftHandMiddle1	LeftHand
LeftHandMiddle2	LeftHandMiddle1
LeftHandMiddle3	LeftHandMiddle2
LeftHandMiddle4	LeftHandMiddle3
LeftHandRing1	LeftHand
LeftHandRing2	LeftHandRing1
LeftHandRing3	LeftHandRing2
LeftHandRing4	LeftHandRing3
LeftHandPinky1	LeftHand
LeftHandPinky2	LeftHandPinky1
LeftHandPinky3	LeftHandPinky2
LeftHandPinky4	LeftHandPinky3
RightShoulder	Spine2
RightArm	RightShoulder
RightForeArm	RightArm
RightHand	RightForeArm
RightHandPinky1	RightHand
RightHandPinky2	RightHandPinky1
RightHandPinky3	RightHandPinky2
RightHandPinky4	RightHandPinky3
RightHandRing1	RightHand
RightHandRing2	RightHandRing1
RightHandRing3	RightHandRing2
RightHandRing4	RightHandRing3
RightHandMiddle1	RightHand
RightHandMiddle2	RightHandMiddle1
RightHandMiddle3	RightHandMiddle2
RightHandMiddle4	RightHandMiddle3
RightHandIndex1	RightHand
RightHandIndex2	RightHandIndex1
RightHandIndex3	RightHandIndex2
RightHandIndex4	RightHandIndex3
RightHandThumb1	RightHand
RightHandThumb2	RightHandThumb1
RightHandThumb3	RightHandThumb2
RightHandThumb4	RightHandThumb3
LeftUpLeg	Hips
LeftLeg	LeftUpLeg
LeftFoot	LeftLeg
LeftToeBase	LeftFoot
RightUpLeg	Hips
RightLeg	RightUpLeg
RightFoot	RightLeg
RightToeBase	RightFoot
[BasePosition]
Hips	0	0	0	0	0	0	1
Spine	0	0	0	0	0	0	1
Spine1	0	0	0	0	0	0	1
Spine2	0	0	0	0	0	0	1
Neck	0	0	0	0	0	0	1
Head	0	0	0	0	0	0	1
LeftEye	0	0	0	0	0	0	1
RightEye	0	0	0	0	0	0	1
LeftShoulder	0	0	0	0	0	0	1
LeftArm	0	0	0	0	0	0	1
LeftForeArm	0	0	0	0	0	0	1
LeftHand	0	0	0	0	0	0	1
LeftHandThumb1	0	0	0	0	0	0	1
LeftHandThumb2	0	0	0	0	0	0	1
LeftHandThumb3	0	0	0	0	0	0	1
LeftHandThumb4	0	0	0	0	0	0	1
LeftHandIndex1	0	0	0	0	0	0	1
LeftHandIndex2	0	0	0	0	0	0	1
LeftHandIndex3	0	0	0	0	0	0	1
LeftHandIndex4	0	0	0	0	0	0	1
LeftHandMiddle1	0	0	0	0	0	0	1
LeftHandMiddle2	0	0	0	0	0	0	1
LeftHandMiddle3	0	0	0	0	0	0	1
LeftHandMiddle4	0	0	0	0	0	0	1
LeftHandRing1	0	0	0	0	0	0	1
LeftHandRing2	0	0	0	0	0	0	1
LeftHandRing3	0	0	0	0	0	0	1
LeftHandRing4	0	0	0	0	0	0	1
LeftHandPinky1	0	0	0	0	0	0	1
LeftHandPinky2	0	0	0	0	0	0	1
LeftHandPinky3	0	0	0	0	0	0	1
LeftHandPinky4	0	0	0	0	0	0	1
RightShoulder	0	0	0	0	0	0	1
RightArm	0	0	0	0	0	0	1
RightForeArm	0	0	0	0	0	0	1
RightHand	0	0	0	0	0	0	1
RightHandPinky1	0	0	0	0	0	0	1
RightHandPinky2	0	0	0	0	0	0	1
RightHandPinky3	0	0	0	0	0	0	1
RightHandPinky4	0	0	0	0	0	0	1
RightHandRing1	0	0	0	0	0	0	1
RightHandRing2	0	0	0	0	0	0	1
RightHandRing3	0	0	0	0	0	0	1
RightHandRing4	0	0	0	0	0	0	1
RightHandMiddle1	0	0	0	0	0	0	1
RightHandMiddle2	0	0	0	0	0	0	1
RightHandMiddle3	0	0	0	0	0	0	1
RightHandMiddle4	0	0	0	0	0	0	1
RightHandIndex1	0	0	0	0	0	0	1
RightHandIndex2	0	0	0	0	0	0	1
RightHandIndex3	0	0	0	0	0	0	1
RightHandIndex4	0	0	0	0	0	0	1
RightHandThumb1	0	0	0	0	0	0	1
RightHandThumb2	0	0	0	0	0	0	1
RightHandThumb3	0	0	0	0	0	0	1
RightHandThumb4	0	0	0	0	0	0	1
LeftUpLeg	0	0	0	0	0	0	1
LeftLeg	0	0	0	0	0	0	1
LeftFoot	0	0	0	0	0	0	1
LeftToeBase	0	0	0	0	0	0	1
RightUpLeg	0	0	0	0	0	0	1
RightLeg	0	0	0	0	0	0	1
RightFoot	0	0	0	0	0	0	1
RightToeBase	0	0	0	0	0	0	1
[Hips]
62	-16.47977257	863.4951172	-1397.716064	-326.72995	-7.418887138	-3.406903267	1.0
63	-27.78817177	861.6090088	-1327.921021	-329.5194092	-7.698789597	-2.229277372	1.0
64	-42.62077332	859.6502686	-1253.860352	-331.5686951	-8.847176552	-2.207555294	1.0
65	-59.58460999	852.3233032	-1178.002197	-333.4785767	-9.597601891	-2.252169371	1.0
[Spine]
62	0	101.8159943	1.315000057	5.77891016	-3.259827614	0.3195233941	1.0
63	0	101.8159943	1.315000057	5.712364197	-3.111303329	0.9638640285	1.0
64	0	101.8159943	1.315000057	5.597430229	-2.854948521	1.505990624	1.0
65	0	101.8159943	1.315000057	5.23186636	-2.428650379	1.529126048	1.0
[Spine1]
62	0	100.8349991	-10.00800037	11.55136204	-6.070165634	1.015598774	1.0
63	0	100.8349991	-10.00800037	11.38696289	-5.854990005	2.473092794	1.0
64	0	100.8349991	-10.00800037	11.13308716	-5.444718838	3.68813467	1.0
65	0	100.8349991	-10.00800037	10.40686512	-4.576508045	3.990376472	1.0
[Spine2]
62	0	91	-13.73399925	11.55135918	-6.070159912	1.015600801	1.0
63	0	91	-13.73399925	11.38695908	-5.854986191	2.473096132	1.0
64	0	91	-13.73399925	11.13308716	-5.444719791	3.6881392	1.0
65	0	91	-13.73399925	10.40686607	-4.576508999	3.990383387	1.0
[Neck]
62	0	166.7169952	-25.16200066	3.988355398	4.15836668	1.03341043	1.0
63	0	166.7169952	-25.16200066	4.00266552	4.214719296	1.894001722	1.0
64	0	166.7169952	-25.16200066	3.788808107	4.204171181	2.687156439	1.0
65	0	166.7169952	-25.16200066	2.841694832	3.995964527	3.334719896	1.0
[Head]
62	0	96.17900085	16.84999847	-40.4608345	16.20416832	-8.172332764	1.0
63	0	96.17900085	16.84999847	-40.27236176	17.34043884	-9.830986023	1.0
64	0	96.17900085	16.84999847	-40.11788559	18.16160393	-11.16967201	1.0
65	0	96.17900085	16.84999847	-39.81329346	17.86544609	-11.46181583	1.0
[LeftEye]
62	30.6760006	64.09500122	92.83599854	0	0	0	1.0
63	30.6760006	64.09500122	92.83599854	0	0	0	1.0
64	30.6760006	64.09500122	92.83599854	0	0	0	1.0
65	30.6760006	64.09500122	92.83599854	0	0	0	1.0
[RightEye]
62	-30.6760006	64.09500122	92.83499908	0	0	0	1.0
63	-30.6760006	64.09500122	92.83499908	0	0	0	1.0
64	-30.6760006	64.09500122	92.83499908	0	0	0	1.0
65	-30.6760006	64.09500122	92.83499908	0	0	0	1.0
[LeftShoulder]
62	45.70400238	109.4599991	-26.28000069	-1.720570922	-28.29560852	4.985677242	1.0
63	45.70400238	109.4599991	-26.28000069	-2.054348469	-27.38066483	6.027643204	1.0
64	45.70400238	109.4599991	-26.28000069	-2.438248396	-25.79785538	7.435002804	1.0
65	45.70400238	109.4599991	-26.28000069	-2.968726635	-22.17654037	10.10230732	1.0
[LeftArm]
62	105.923996	-5.24600029	-22.32099915	-10.3541584	-22.6611042	-16.11234093	1.0
63	105.923996	-5.24600029	-22.32099915	-19.10187531	-16.7175045	-11.71654892	1.0
64	105.923996	-5.24600029	-22.32099915	-26.93354988	-10.86047649	-8.384588242	1.0
65	105.923996	-5.24600029	-22.32099915	-32.1372757	-6.059089184	-7.362911701	1.0
[LeftForeArm]
62	278.414978	-0.0009999999311	0	-543.682251	-87.1842804	542.1541138	1.0
63	278.414978	-0.0009999999311	0	-682.486084	-89.28942871	680.2055664	1.0
64	278.414978	-0.0009999999311	0	-700.6622925	-87.40700531	697.6904907	1.0
65	278.414978	-0.0009999999311	0	-600.1049805	-88.20233154	596.4998779	1.0
[LeftHand]
62	283.2879944	0	0	6.182225704	0.7665914297	15.39824963	1.0
63	283.2879944	0	0	6.730956554	-3.192501545	14.79744625	1.0
64	283.2879944	0	0	7.399549484	-7.93849802	16.20967674	1.0
65	283.2879944	0	0	6.989822388	-6.623394012	18.27555084	1.0
[LeftHandThumb1]
62	24.6609993	-15.75	26.8239994	0.5027168393	-3.635147333	17.43177032	1.0
63	24.6609993	-15.75	26.8239994	3.345185518	-0.3739991188	17.89842415	1.0
64	24.6609993	-15.75	26.8239994	5.954042912	2.578840971	18.36242867	1.0
65	24.6609993	-15.75	26.8239994	6.106991768	2.345656633	18.53007317	1.0
[LeftHandThumb2]
62	32.29800034	-18.64699936	18.64699936	5.44908905	8.656864166	-5.020703793	1.0
63	32.29800034	-18.64699936	18.64699936	5.273946285	13.92683601	-1.849735022	1.0
64	32.29800034	-18.64699936	18.64699936	5.108967781	18.72356796	1.004705667	1.0
65	32.29800034	-18.64699936	18.64699936	5.141395092	18.62769127	0.6734461784	1.0
[LeftHandThumb3]
62	26.52600098	-15.31499958	15.31499958	3.601811159e-06	-8.438974328e-05	-6.943767221e-05	1.0
63	26.52600098	-15.31499958	15.31499958	3.601811159e-06	-8.438974328e-05	-6.943767221e-05	1.0
64	26.52600098	-15.31499958	15.31499958	3.601811159e-06	-8.438974328e-05	-6.943767221e-05	1.0
65	26.52600098	-15.31499958	15.31499958	3.601811159e-06	-8.438974328e-05	-6.943767221e-05	1.0
[LeftHandThumb4]
62	19.54599953	-11.28499985	11.28499985	0	0	0	1.0
63	19.54599953	-11.28499985	11.28499985	0	0	0	1.0
64	19.54599953	-11.28499985	11.28499985	0	0	0	1.0
65	19.54599953	-11.28499985	11.28499985	0	0	0	1.0
[LeftHandIndex1]
62	91.09299469	-5.170999527	22.60099792	-0.01720246486	-1.097299337	-10.25039577	1.0
63	91.09299469	-5.170999527	22.60099792	-0.2119562328	-1.727358341	-13.26763916	1.0
64	91.09299469	-5.170999527	22.60099792	-0.3876843452	-2.302541256	-16.01560402	1.0
65	91.09299469	-5.170999527	22.60099792	-0.3849439025	-2.292692423	-15.96945858	1.0
[LeftHandIndex2]
62	36.76399994	0	0	-0.5029631257	0.02560725994	-22.47375679	1.0
63	36.76399994	0	0	-0.8537793159	-1.459763527	-33.23121643	1.0
64	36.76399994	0	0	-1.146549344	-2.821557283	-43.02891159	1.0
65	36.76399994	0	0	-1.145499706	-2.798070431	-42.86416245	1.0
[LeftHandIndex3]
62	28.83100128	0	0	-1.432096042e-06	3.907105395e-07	1.552835329e-06	1.0
63	28.83100128	0	0	-1.432096042e-06	3.907105395e-07	1.552835329e-06	1.0
64	28.83100128	0	0	-1.432096042e-06	3.907105395e-07	1.552835329e-06	1.0
65	28.83100128	0	0	-1.432096042e-06	3.907105395e-07	1.552835329e-06	1.0
[LeftHandIndex4]
62	23.92700005	0	0	0	0	0	1.0
63	23.92700005	0	0	0	0	0	1.0
64	23.92700005	0	0	0	0	0	1.0
65	23.92700005	0	0	0	0	0	1.0
[LeftHandMiddle1]
62	95.33399963	0	0	-0.73011446	-0.09034455568	-18.39758492	1.0
63	95.33399963	0	0	-1.012821078	-0.6279615164	-22.97932243	1.0
64	95.33399963	0	0	-1.266222596	-1.120038867	-27.1524086	1.0
65	95.33399963	0	0	-1.262568831	-1.111477494	-27.08229256	1.0
[LeftHandMiddle2]
62	36.98199844	0	0	-0.4340484738	-1.472620606	-20.17383766	1.0
63	36.98199844	0	0	-0.5655671358	-2.849372387	-31.5807476	1.0
64	36.98199844	0	0	-0.6587470174	-4.108432293	-41.9712677	1.0
65	36.98199844	0	0	-0.660961926	-4.087214947	-41.79640961	1.0
[LeftHandMiddle3]
62	29.50900078	0	0	0	-3.180554719e-15	-7.951386796e-16	1.0
63	29.50900078	0	0	0	-3.180554719e-15	-7.951386796e-16	1.0
64	29.50900078	0	0	0	-3.180554719e-15	-7.951386796e-16	1.0
65	29.50900078	0	0	0	-3.180554719e-15	-7.951386796e-16	1.0
[LeftHandMiddle4]
62	28.3390007	0	0	0	0	0	1.0
63	28.3390007	0	0	0	0	0	1.0
64	28.3390007	0	0	0	0	0	1.0
65	28.3390007	0	0	0	0	0	1.0
[LeftHandRing1]
62	91.04499817	-0.4390000105	-18.65100098	-2.968439579	5.512219429	-29.48043251	1.0
63	91.04499817	-0.4390000105	-18.65100098	-3.097079754	4.695689201	-34.4493866	1.0
64	91.04499817	-0.4390000105	-18.65100098	-3.208863735	3.950166225	-38.97459793	1.0
65	91.04499817	-0.4390000105	-18.65100098	-3.207739353	3.962898254	-38.89862442	1.0
[LeftHandRing2]
62	31.54000092	0	0	1.40094924	-2.37971735	-29.09709167	1.0
63	31.54000092	0	0	2.348206997	-2.632163048	-40.54649734	1.0
64	31.54000092	0	0	3.217701912	-2.844037294	-50.97616959	1.0
65	31.54000092	0	0	3.202590942	-2.843106508	-50.80078506	1.0
[LeftHandRing3]
62	29.37700081	0	0	1.590277359e-15	3.180554719e-15	-7.951386796e-16	1.0
63	29.37700081	0	0	1.590277359e-15	3.180554719e-15	-7.951386796e-16	1.0
64	29.37700081	0	0	1.590277359e-15	3.180554719e-15	-7.951386796e-16	1.0
65	29.37700081	0	0	1.590277359e-15	3.180554719e-15	-7.951386796e-16	1.0
[LeftHandRing4]
62	26.47500038	0	0	0	0	0	1.0
63	26.47500038	0	0	0	0	0	1.0
64	26.47500038	0	0	0	0	0	1.0
65	26.47500038	0	0	0	0	0	1.0
[LeftHandPinky1]
62	80.77799988	-4.887000084	-38.06099701	-3.728896379	10.85448933	-27.82049179	1.0
63	80.77799988	-4.887000084	-38.06099701	-3.748862267	9.319250107	-32.79983521	1.0
64	80.77799988	-4.887000084	-38.06099701	-3.761340618	7.919122696	-37.33214188	1.0
65	80.77799988	-4.887000084	-38.06099701	-3.759376287	7.944961071	-37.23885345	1.0
[LeftHandPinky2]
62	36	0	0	4.476944923	-4.582672119	-42.69215012	1.0
63	36	0	0	5.36934042	-4.097868919	-49.27157211	1.0
64	36	0	0	6.177537441	-3.645037889	-55.2708168	1.0
65	36	0	0	6.169967651	-3.647023201	-55.25169373	1.0
[LeftHandPinky3]
62	21.14200211	0	0	3.226109357e-06	2.925280342e-06	-5.739977951e-06	1.0
63	21.14200211	0	0	3.226109357e-06	2.925280342e-06	-5.739977951e-06	1.0
64	21.14200211	0	0	3.226109357e-06	2.925280342e-06	-5.739977951e-06	1.0
65	21.14200211	0	0	3.226109357e-06	2.925280342e-06	-5.739977951e-06	1.0
[LeftHandPinky4]
62	19.75699997	0	0	0	0	0	1.0
63	19.75699997	0	0	0	0	0	1.0
64	19.75699997	0	0	0	0	0	1.0
65	19.75699997	0	0	0	0	0	1.0
[RightShoulder]
62	-45.70000076	109.4620056	-26.28000069	4.175810337	11.95532513	11.20394611	1.0
63	-45.70000076	109.4620056	-26.28000069	4.788576126	13.06092453	11.3837738	1.0
64	-45.70000076	109.4620056	-26.28000069	5.326813221	13.74157524	11.56637669	1.0
65	-45.70000076	109.4620056	-26.28000069	5.632955074	12.60985756	11.76930046	1.0
[RightArm]
62	-105.9280014	-5.248000145	-22.32099915	-16.86007881	-4.113316059	54.16151047	1.0
63	-105.9280014	-5.248000145	-22.32099915	-14.79872704	-3.559170961	51.05369949	1.0
64	-105.9280014	-5.248000145	-22.32099915	-12.02642059	-2.804959536	47.52100754	1.0
65	-105.9280014	-5.248000145	-22.32099915	-7.436852455	1.788790464	43.7951088	1.0
[RightForeArm]
62	-278.414978	0	0	-11.91409397	16.67692566	0.7795955539	1.0
63	-278.414978	0	0	-13.17813587	17.84677696	0.9624119997	1.0
64	-278.414978	0	0	-13.17722225	23.03473282	1.126728654	1.0
65	-278.414978	0	0	-12.35208988	28.93157387	1.185565352	1.0
[RightHand]
62	-283.2879944	0	0.0009999999311	-30.65857697	0.1929509491	-5.792470455	1.0
63	-283.2879944	0	0.0009999999311	-35.49812317	15.22687626	6.477209091	1.0
64	-283.2879944	0	0.0009999999311	-39.34637451	28.35585022	15.42768764	1.0
65	-283.2879944	0	0.0009999999311	-41.30699921	32.55491257	12.23510075	1.0
[RightHandPinky1]
62	-80.76699829	-4.885000229	-38.06000137	-2.677843094	-22.1140213	23.18326378	1.0
63	-80.76699829	-4.885000229	-38.06000137	-2.262326956	-20.49624443	22.83195877	1.0
64	-80.76699829	-4.885000229	-38.06000137	-1.878392458	-18.60277176	23.57402802	1.0
65	-80.76699829	-4.885000229	-38.06000137	-1.763658762	-15.83455849	29.88750648	1.0
[RightHandPinky2]
62	-36	0	0.0009999999311	8.67298317	5.788838387	61.84224701	1.0
63	-36	0	0.0009999999311	8.657279015	5.794636726	61.77613068	1.0
64	-36	0	0.0009999999311	8.689031601	5.777004719	62.00141525	1.0
65	-36	0	0.0009999999311	8.981693268	5.630604744	63.82843781	1.0
[RightHandPinky3]
62	-21.14200211	0	0	-1.590277359e-15	0	-7.951386796e-16	1.0
63	-21.14200211	0	0	-1.590277359e-15	0	-7.951386796e-16	1.0
64	-21.14200211	0	0	-1.590277359e-15	0	-7.951386796e-16	1.0
65	-21.14200211	0	0	-1.590277359e-15	0	-7.951386796e-16	1.0
[RightHandPinky4]
62	-19.75699997	0	0	0	0	0	1.0
63	-19.75699997	0	0	0	0	0	1.0
64	-19.75699997	0	0	0	0	0	1.0
65	-19.75699997	0	0	0	0	0	1.0
[RightHandRing1]
62	-91.03599548	-0.4390000105	-18.65100098	-2.412434101	-10.48704624	22.47420311	1.0
63	-91.03599548	-0.4390000105	-18.65100098	-2.045480251	-9.357292175	22.28091049	1.0
64	-91.03599548	-0.4390000105	-18.65100098	-1.720384598	-8.024689674	23.22680092	1.0
65	-91.03599548	-0.4390000105	-18.65100098	-1.696251035	-5.980762005	29.93025208	1.0
[RightHandRing2]
62	-31.54000092	0	0	3.237386942	3.772231102	46.11830139	1.0
63	-31.54000092	0	0	3.220759153	3.767751217	45.95855331	1.0
64	-31.54000092	0	0	3.237372637	3.772254705	46.11830139	1.0
65	-31.54000092	0	0	3.436837435	3.826152325	48.03526306	1.0
[RightHandRing3]
62	-29.37700081	0	0	5.740008078e-07	-7.531911024e-07	-2.69121324e-06	1.0
63	-29.37700081	0	0	5.740008078e-07	-7.531911024e-07	-2.69121324e-06	1.0
64	-29.37700081	0	0	5.740008078e-07	-7.531911024e-07	-2.69121324e-06	1.0
65	-29.37700081	0	0	5.740008078e-07	-7.531911024e-07	-2.69121324e-06	1.0
[RightHandRing4]
62	-26.47500038	0	0	0	0	0	1.0
63	-26.47500038	0	0	0	0	0	1.0
64	-26.47500038	0	0	0	0	0	1.0
65	-26.47500038	0	0	0	0	0	1.0
[RightHandMiddle1]
62	-95.32500458	0	0	-1.531795144	-0.3971485794	13.93677807	1.0
63	-95.32500458	0	0	-1.534572363	-0.4022864699	13.91641617	1.0
64	-95.32500458	0	0	-1.617458105	-0.2794712484	15.0405674	1.0
65	-95.32500458	0	0	-2.098104715	0.4882495999	21.90764999	1.0
[RightHandMiddle2]
62	-36.98199844	0	0	-0.9469977617	3.265588522	41.22748947	1.0
63	-36.98199844	0	0	-0.9470573664	3.245612144	41.03985596	1.0
64	-36.98199844	0	0	-0.9470050335	3.26558876	41.22750473	1.0
65	-36.98199844	0	0	-0.9463236928	3.505330324	43.47916412	1.0
[RightHandMiddle3]
62	-29.50900078	0	0	1.856611448e-06	-0.002022909233	1.577868488e-06	1.0
63	-29.50900078	0	0	1.856611448e-06	-0.002022909233	1.577868488e-06	1.0
64	-29.50900078	0	0	1.856611448e-06	-0.002022909233	1.577868488e-06	1.0
65	-29.50900078	0	0	1.856611448e-06	-0.002022909233	1.577868488e-06	1.0
[RightHandMiddle4]
62	-28.3390007	0	0.0009999999311	0	0	0	1.0
63	-28.3390007	0	0.0009999999311	0	0	0	1.0
64	-28.3390007	0	0.0009999999311	0	0	0	1.0
65	-28.3390007	0	0.0009999999311	0	0	0	1.0
[RightHandIndex1]
62	-91.08300018	-5.167999744	22.60099792	0.3806830645	7.05763483	3.552159071	1.0
63	-91.08300018	-5.167999744	22.60099792	0.3151191473	6.645730019	3.5522542	1.0
64	-91.08300018	-5.167999744	22.60099792	0.1268961281	6.271969795	4.778102398	1.0
65	-91.08300018	-5.167999744	22.60099792	-0.638438046	6.314287663	12.14294243	1.0
[RightHandIndex2]
62	-36.76399994	0	0	-1.488843322	2.073335648	43.75288773	1.0
63	-36.76399994	0	0	-1.485275507	2.045110226	43.53140259	1.0
64	-36.76399994	0	0	-1.488853216	2.073328495	43.75289917	1.0
65	-36.76399994	0	0	-1.531733394	2.411993504	46.41075516	1.0
[RightHandIndex3]
62	-28.83100128	0	0	-3.180554719e-15	0	0	1.0
63	-28.83100128	0	0	-3.180554719e-15	0	0	1.0
64	-28.83100128	0	0	-3.180554719e-15	0	0	1.0
65	-28.83100128	0	0	-3.180554719e-15	0	0	1.0
[RightHandIndex4]
62	-23.92700005	0	0	0	0	0	1.0
63	-23.92700005	0	0	0	0	0	1.0
64	-23.92700005	0	0	0	0	0	1.0
65	-23.92700005	0	0	0	0	0	1.0
[RightHandThumb1]
62	-24.64799881	-15.72700024	26.82600021	-0.8882011175	5.407120705	-17.44067764	1.0
63	-24.64799881	-15.72700024	26.82600021	-0.7287908792	5.57374382	-17.66261101	1.0
64	-24.64799881	-15.72700024	26.82600021	-0.5575332642	5.722057343	-17.82899475	1.0
65	-24.64799881	-15.72700024	26.82600021	-0.3224326968	5.7674613	-17.68779945	1.0
[RightHandThumb2]
62	-32.29800034	-18.64699936	18.64699936	5.564770222	-5.898794174	6.850862503	1.0
63	-32.29800034	-18.64699936	18.64699936	5.620550156	-5.824794769	7.095522881	1.0
64	-32.29800034	-18.64699936	18.64699936	5.742116928	-5.873231411	7.378685474	1.0
65	-32.29800034	-18.64699936	18.64699936	6.224125385	-6.594611645	7.87044096	1.0
[RightHandThumb3]
62	-26.52600098	-15.31399918	15.31399918	-3.81245151e-08	-0.00121095567	-0.001221005921	1.0
63	-26.52600098	-15.31399918	15.31399918	-3.81245151e-08	-0.00121095567	-0.001221005921	1.0
64	-26.52600098	-15.31399918	15.31399918	-3.81245151e-08	-0.00121095567	-0.001221005921	1.0
65	-26.52600098	-15.31399918	15.31399918	-3.81245151e-08	-0.00121095567	-0.001221005921	1.0
[RightHandThumb4]
62	-19.54599953	-11.28499985	11.28499985	0	0	0	1.0
63	-19.54599953	-11.28499985	11.28499985	0	0	0	1.0
64	-19.54599953	-11.28499985	11.28499985	0	0	0	1.0
65	-19.54599953	-11.28499985	11.28499985	0	0	0	1.0
[LeftUpLeg]
62	82.07800293	-67.51699829	-15.99599934	-37.19564056	12.15365314	-5.726314068	1.0
63	82.07800293	-67.51699829	-15.99599934	-26.84887123	12.70111847	-4.748047829	1.0
64	82.07800293	-67.51699829	-15.99599934	-17.36689568	13.43642807	-3.046630859	1.0
65	82.07800293	-67.51699829	-15.99599934	-13.41279316	14.12339401	-0.1917511076	1.0
[LeftLeg]
62	0	-443.7049866	2.845999956	50.91141891	3.698553324	-0.02319097891	1.0
63	0	-443.7049866	2.845999956	44.49887466	1.821409345	-0.3222085834	1.0
64	0	-443.7049866	2.845999956	39.68248749	-0.5063011646	-1.197562099	1.0
65	0	-443.7049866	2.845999956	45.61869431	-4.33500433	-4.664227486	1.0
[LeftFoot]
62	0	-444.2789917	-29.8219986	-46.59204102	-2.087133884	3.306670666	1.0
63	0	-444.2789917	-29.8219986	-43.44407654	-1.71079886	-0.04105877876	1.0
64	0	-444.2789917	-29.8219986	-38.07761002	-1.854049802	-4.046508789	1.0
65	0	-444.2789917	-29.8219986	-27.03420067	-3.510430574	-8.517887115	1.0
[LeftToeBase]
62	0	-87.28699493	107.1060028	-3.619861603	6.571364963e-08	3.944006949e-06	1.0
63	0	-87.28699493	107.1060028	-7.557434082	0.00238505844	0.1195321754	1.0
64	0	-87.28699493	107.1060028	-12.61388683	0.1902907491	0.888700068	1.0
65	0	-87.28699493	107.1060028	-18.11128426	1.303416729	4.786537647	1.0
[RightUpLeg]
62	-82.07800293	-67.51699829	-15.99599934	-74.28072357	-5.016364098	-5.707578659	1.0
63	-82.07800293	-67.51699829	-15.99599934	-73.7275238	-2.324004889	-5.37383604	1.0
64	-82.07800293	-67.51699829	-15.99599934	-72.14405823	-0.1532400548	-5.110980511	1.0
65	-82.07800293	-67.51699829	-15.99599934	-67.27937317	-0.07999648899	-5.318510056	1.0
[RightLeg]
62	0	-443.7049866	2.861999989	63.84417343	3.033434868	0.108663477	1.0
63	0	-443.7049866	2.861999989	62.1422081	4.025054455	1.711081028	1.0
64	0	-443.7049866	2.861999989	61.57422638	4.826262951	3.030649185	1.0
65	0	-443.7049866	2.861999989	66.38861847	4.80813694	3.41185689	1.0
[RightFoot]
62	0	-444.2770081	-29.83799934	-16.72949791	1.190623999	13.66311836	1.0
63	0	-444.2770081	-29.83799934	-16.79267883	0.9115741253	11.3466444	1.0
64	0	-444.2770081	-29.83799934	-17.81875229	0.715236485	9.247268677	1.0
65	0	-444.2770081	-29.83799934	-25.1777668	1.096650004	8.00752449	1.0
[RightToeBase]
62	0	-87.28699493	107.1060028	-2.624789238	1.264055186e-06	-2.685758773e-06	1.0
63	0	-87.28699493	107.1060028	-2.149555206	8.622231462e-07	-3.481361546e-07	1.0
64	0	-87.28699493	107.1060028	-1.694048166	9.604885918e-07	1.185646283e-06	1.0
65	0	-87.28699493	107.1060028	-2.053635597	1.878836656e-06	-1.567948175e-06	1.0
[EndOfFile]
